<?xml version="1.0" standalone="no"?>
<!DOCTYPE svg PUBLIC "-//W3C//DTD SVG 1.1//EN"
"http://www.w3.org/Graphics/SVG/1.1/DTD/svg11.dtd">

<svg width="543" height="338" view_box="0 0 543 338"
xmlns="http://www.w3.org/2000/svg"
xmlns:link="http://www.w3.org/1999/xlink">\n\n<desc>Généré par Mocodo 2.3.7 le Mon, 19 Jul 2021 03:26:05</desc>

<rect id="frame" x="0" y="0" width="543" height="338" fill="#ffffbf" stroke="none" stroke-width="0"/>

<!-- Association impacte -->
<line x1="452" y1="278" x2="452" y2="177" stroke="#f46d43" stroke-width="2"/>
<text x="457.0" y="219" fill="#4575b4" font-family="Verdana" font-size="12">1,1</text>
<line x1="452" y1="68" x2="452" y2="177" stroke="#f46d43" stroke-width="2"/>
<text x="457.0" y="144" fill="#4575b4" font-family="Verdana" font-size="12">0,N</text>
<g id="association-impacte">
	<path d="M 520 152 a 14 14 90 0 1 14 14 V 177 h -164 V 166 a 14 14 90 0 1 14 -14" fill="#fdae61" stroke="#fdae61" stroke-width="0"/>
	<path d="M 534 177.0 v 11 a 14 14 90 0 1 -14 14 H 384 a 14 14 90 0 1 -14 -14 V 177.0 H 164" fill="#fee090" stroke="#fee090" stroke-width="0"/>
	<rect x="370" y="152" width="164" height="50" fill="none" rx="14" stroke="#f46d43" stroke-width="2"/>
	<line x1="370" y1="177" x2="534" y2="177" stroke="#f46d43" stroke-width="1"/>
	<text x="427" y="169.7" fill="#000000" font-family="Verdana" font-size="12">impacte</text>
	<text x="377" y="194.8" fill="#000000" font-family="Verdana" font-size="12">date et heure de constat</text>
</g>

<!-- Association réserve -->
<line x1="452" y1="68" x2="278" y2="68" stroke="#f46d43" stroke-width="2"/>
<text x="358" y="85.0" fill="#4575b4" font-family="Verdana" font-size="12">0,N</text>
<line x1="90" y1="68" x2="278" y2="68" stroke="#f46d43" stroke-width="2"/>
<text x="176" y="85.0" fill="#4575b4" font-family="Verdana" font-size="12">0,N</text>
<g id="association-réserve">
	<path d="M 339 34 a 14 14 90 0 1 14 14 V 59 h -150 V 48 a 14 14 90 0 1 14 -14" fill="#fdae61" stroke="#fdae61" stroke-width="0"/>
	<path d="M 353 59.0 v 29 a 14 14 90 0 1 -14 14 H 217 a 14 14 90 0 1 -14 -14 V 59.0 H 150" fill="#fee090" stroke="#fee090" stroke-width="0"/>
	<rect x="203" y="34" width="150" height="68" fill="none" rx="14" stroke="#f46d43" stroke-width="2"/>
	<line x1="203" y1="59" x2="353" y2="59" stroke="#f46d43" stroke-width="1"/>
	<text x="255" y="51.7" fill="#000000" font-family="Verdana" font-size="12">réserve</text>
	<text x="210" y="76.8" fill="#000000" font-family="Verdana" font-size="12">nombre de places</text>
	<text x="210" y="93.8" fill="#000000" font-family="Verdana" font-size="12">horaire de réservation</text>
</g>

<!-- Association est traité -->
<line x1="452" y1="278" x2="278" y2="278" stroke="#f46d43" stroke-width="2"/>
<text x="364" y="295.0" fill="#4575b4" font-family="Verdana" font-size="12">0,N</text>
<line x1="90" y1="278" x2="278" y2="278" stroke="#f46d43" stroke-width="2"/>
<text x="165" y="295.0" fill="#4575b4" font-family="Verdana" font-size="12">1,1</text>
<g id="association-est traité">
	<path d="M 299 253 a 14 14 90 0 1 14 14 V 278 h -70 V 267 a 14 14 90 0 1 14 -14" fill="#fdae61" stroke="#fdae61" stroke-width="0"/>
	<path d="M 313 278.0 v 11 a 14 14 90 0 1 -14 14 H 257 a 14 14 90 0 1 -14 -14 V 278.0 H 70" fill="#fee090" stroke="#fee090" stroke-width="0"/>
	<rect x="243" y="253" width="70" height="50" fill="none" rx="14" stroke="#f46d43" stroke-width="2"/>
	<line x1="243" y1="278" x2="313" y2="278" stroke="#f46d43" stroke-width="1"/>
	<text x="250" y="270.7" fill="#000000" font-family="Verdana" font-size="12">est traité</text>
</g>

<!-- Entity COMMENTAIRE -->
<g id="entity-COMMENTAIRE">
	<g id="frame-COMMENTAIRE">
		<rect x="20" y="244" width="140" height="25" fill="#abd9e9" stroke="#abd9e9" stroke-width="0"/>
		<rect x="20" y="269.0" width="140" height="43" fill="#e0f3f8" stroke="#e0f3f8" stroke-width="0"/>
		<rect x="20" y="244" width="140" height="68" fill="none" stroke="#74add1" stroke-width="2"/>
		<line x1="20" y1="269" x2="160" y2="269" stroke="#74add1" stroke-width="1"/>
	</g>
	<text x="44" y="261.7" fill="#000000" font-family="Verdana" font-size="12">COMMENTAIRE</text>
	<text x="25" y="286.8" fill="#000000" font-family="Verdana" font-size="12">texte</text>
	<line x1="25" y1="289" x2="57" y2="289" stroke="#000000" stroke-width="1"/>
	<text x="25" y="303.8" fill="#000000" font-family="Verdana" font-size="12">date du commentaire</text>
</g>

<!-- Entity ATTRACTION -->
<g id="entity-ATTRACTION">
	<g id="frame-ATTRACTION">
		<rect x="385" y="9" width="134" height="25" fill="#abd9e9" stroke="#abd9e9" stroke-width="0"/>
		<rect x="385" y="34.0" width="134" height="93" fill="#e0f3f8" stroke="#e0f3f8" stroke-width="0"/>
		<rect x="385" y="9" width="134" height="118" fill="none" stroke="#74add1" stroke-width="2"/>
		<line x1="385" y1="34" x2="519" y2="34" stroke="#74add1" stroke-width="1"/>
	</g>
	<text x="412" y="26.7" fill="#000000" font-family="Verdana" font-size="12">ATTRACTION</text>
	<text x="390" y="51.7" fill="#000000" font-family="Verdana" font-size="12">nom public</text>
	<line x1="390" y1="54" x2="457" y2="54" stroke="#000000" stroke-width="1"/>
	<text x="390" y="68.8" fill="#000000" font-family="Verdana" font-size="12">capacité</text>
	<text x="390" y="85.8" fill="#000000" font-family="Verdana" font-size="12">heure d'ouverture</text>
	<text x="390" y="102.8" fill="#000000" font-family="Verdana" font-size="12">durée d'ouverture</text>
	<text x="390" y="119.8" fill="#000000" font-family="Verdana" font-size="12">durée de l'attraction</text>
</g>

<!-- Entity INCIDENT -->
<g id="entity-INCIDENT">
	<g id="frame-INCIDENT">
		<rect x="391" y="227" width="122" height="25" fill="#abd9e9" stroke="#abd9e9" stroke-width="0"/>
		<rect x="391" y="252.0" width="122" height="77" fill="#e0f3f8" stroke="#e0f3f8" stroke-width="0"/>
		<rect x="391" y="227" width="122" height="102" fill="none" stroke="#74add1" stroke-width="2"/>
		<line x1="391" y1="252" x2="513" y2="252" stroke="#74add1" stroke-width="1"/>
	</g>
	<text x="421" y="244.7" fill="#000000" font-family="Verdana" font-size="12">INCIDENT</text>
	<text x="396" y="269.7" fill="#000000" font-family="Verdana" font-size="12">numéro d'incident</text>
	<line x1="396" y1="272" x2="506" y2="272" stroke="#000000" stroke-width="1"/>
	<text x="396" y="286.8" fill="#000000" font-family="Verdana" font-size="12">nature</text>
	<text x="396" y="303.8" fill="#000000" font-family="Verdana" font-size="12">technicien assigné</text>
	<text x="396" y="320.8" fill="#000000" font-family="Verdana" font-size="12">date de résolution</text>
</g>

<!-- Entity VISITEUR -->
<g id="entity-VISITEUR">
	<g id="frame-VISITEUR">
		<rect x="9" y="26" width="162" height="25" fill="#abd9e9" stroke="#abd9e9" stroke-width="0"/>
		<rect x="9" y="51.0" width="162" height="59" fill="#e0f3f8" stroke="#e0f3f8" stroke-width="0"/>
		<rect x="9" y="26" width="162" height="84" fill="none" stroke="#74add1" stroke-width="2"/>
		<line x1="9" y1="51" x2="171" y2="51" stroke="#74add1" stroke-width="1"/>
	</g>
	<text x="60" y="43.7" fill="#000000" font-family="Verdana" font-size="12">VISITEUR</text>
	<text x="14" y="68.8" fill="#000000" font-family="Verdana" font-size="12">numéro de billet</text>
	<line x1="14" y1="71" x2="114" y2="71" stroke="#000000" stroke-width="1"/>
	<text x="14" y="85.8" fill="#000000" font-family="Verdana" font-size="12">date de début de validité</text>
	<text x="14" y="102.8" fill="#000000" font-family="Verdana" font-size="12">date de fin de validité</text>
</g>
</svg>