<?xml version="1.0" standalone="no"?>
<!DOCTYPE svg PUBLIC "-//W3C//DTD SVG 1.1//EN"
"http://www.w3.org/Graphics/SVG/1.1/DTD/svg11.dtd">

<svg width="532" height="271" view_box="0 0 532 271"
xmlns="http://www.w3.org/2000/svg"
xmlns:link="http://www.w3.org/1999/xlink">\n\n<desc>Généré par Mocodo 2.3.7 le Wed, 25 May 2022 06:54:30</desc>

<rect id="frame" x="0" y="0" width="532" height="271" fill="#f5f5f5" stroke="none" stroke-width="0"/>

<!-- Association impacte -->
<line x1="441" y1="203" x2="441" y2="68" stroke="#bf812d" stroke-width="2"/>
<text x="446.0" y="136" fill="#01665e" font-family="Verdana" font-size="12">1,1</text>
<line x1="262" y1="68" x2="441" y2="68" stroke="#bf812d" stroke-width="2"/>
<text x="332" y="85.0" fill="#01665e" font-family="Verdana" font-size="12">0,N</text>
<g id="association-impacte">
	<path d="M 509 43 a 14 14 90 0 1 14 14 V 68 h -164 V 57 a 14 14 90 0 1 14 -14" fill="#dfc27d" stroke="#dfc27d" stroke-width="0"/>
	<path d="M 523 68.0 v 11 a 14 14 90 0 1 -14 14 H 373 a 14 14 90 0 1 -14 -14 V 68.0 H 164" fill="#f6e8c3" stroke="#f6e8c3" stroke-width="0"/>
	<rect x="359" y="43" width="164" height="50" fill="none" rx="14" stroke="#bf812d" stroke-width="2"/>
	<line x1="359" y1="68" x2="523" y2="68" stroke="#bf812d" stroke-width="1"/>
	<text x="416" y="60.7" fill="#000000" font-family="Verdana" font-size="12">impacte</text>
	<text x="366" y="85.8" fill="#000000" font-family="Verdana" font-size="12">date et heure de constat</text>
</g>

<!-- Association réserve -->
<line x1="262" y1="68" x2="90" y2="68" stroke="#bf812d" stroke-width="2"/>
<text x="170" y="85.0" fill="#01665e" font-family="Verdana" font-size="12">0,N</text>
<line x1="90" y1="203" x2="90" y2="68" stroke="#bf812d" stroke-width="2"/>
<text x="95.0" y="144" fill="#01665e" font-family="Verdana" font-size="12">0,N</text>
<g id="association-réserve">
	<path d="M 151 34 a 14 14 90 0 1 14 14 V 59 h -150 V 48 a 14 14 90 0 1 14 -14" fill="#dfc27d" stroke="#dfc27d" stroke-width="0"/>
	<path d="M 165 59.0 v 29 a 14 14 90 0 1 -14 14 H 29 a 14 14 90 0 1 -14 -14 V 59.0 H 150" fill="#f6e8c3" stroke="#f6e8c3" stroke-width="0"/>
	<rect x="15" y="34" width="150" height="68" fill="none" rx="14" stroke="#bf812d" stroke-width="2"/>
	<line x1="15" y1="59" x2="165" y2="59" stroke="#bf812d" stroke-width="1"/>
	<text x="67" y="51.7" fill="#000000" font-family="Verdana" font-size="12">réserve</text>
	<text x="22" y="76.8" fill="#000000" font-family="Verdana" font-size="12">nombre de places</text>
	<text x="22" y="93.8" fill="#000000" font-family="Verdana" font-size="12">horaire de réservation</text>
</g>

<!-- Entity ATTRACTION -->
<g id="entity-ATTRACTION">
	<g id="frame-ATTRACTION">
		<rect x="197" y="9" width="130" height="25" fill="#80cdc1" stroke="#80cdc1" stroke-width="0"/>
		<rect x="197" y="34.0" width="130" height="93" fill="#c7eae5" stroke="#c7eae5" stroke-width="0"/>
		<rect x="197" y="9" width="130" height="118" fill="none" stroke="#35978f" stroke-width="2"/>
		<line x1="197" y1="34" x2="327" y2="34" stroke="#35978f" stroke-width="1"/>
	</g>
	<text x="222" y="26.7" fill="#000000" font-family="Verdana" font-size="12">ATTRACTION</text>
	<text x="202" y="51.7" fill="#000000" font-family="Verdana" font-size="12">nom public</text>
	<line x1="202" y1="54" x2="269" y2="54" stroke="#000000" stroke-width="1"/>
	<text x="202" y="68.8" fill="#000000" font-family="Verdana" font-size="12">capacité</text>
	<text x="202" y="85.8" fill="#000000" font-family="Verdana" font-size="12">heure d'ouverture</text>
	<text x="202" y="102.8" fill="#000000" font-family="Verdana" font-size="12">heure de fermeture</text>
	<text x="202" y="119.8" fill="#000000" font-family="Verdana" font-size="12">durée</text>
</g>

<!-- Entity INCIDENT -->
<g id="entity-INCIDENT">
	<g id="frame-INCIDENT">
		<rect x="362" y="144" width="158" height="25" fill="#80cdc1" stroke="#80cdc1" stroke-width="0"/>
		<rect x="362" y="169.0" width="158" height="93" fill="#c7eae5" stroke="#c7eae5" stroke-width="0"/>
		<rect x="362" y="144" width="158" height="118" fill="none" stroke="#35978f" stroke-width="2"/>
		<line x1="362" y1="169" x2="520" y2="169" stroke="#35978f" stroke-width="1"/>
	</g>
	<text x="410" y="161.7" fill="#000000" font-family="Verdana" font-size="12">INCIDENT</text>
	<text x="367" y="186.7" fill="#000000" font-family="Verdana" font-size="12">numéro d'incident</text>
	<line x1="367" y1="189" x2="477" y2="189" stroke="#000000" stroke-width="1"/>
	<text x="367" y="203.8" fill="#000000" font-family="Verdana" font-size="12">nature</text>
	<text x="367" y="220.8" fill="#000000" font-family="Verdana" font-size="12">technicien assigné</text>
	<text x="367" y="237.8" fill="#000000" font-family="Verdana" font-size="12">date de debut d'incident</text>
	<text x="367" y="254.8" fill="#000000" font-family="Verdana" font-size="12">date de résolution</text>
</g>

<!-- Entity VISITEUR -->
<g id="entity-VISITEUR">
	<g id="frame-VISITEUR">
		<rect x="9" y="152" width="162" height="25" fill="#80cdc1" stroke="#80cdc1" stroke-width="0"/>
		<rect x="9" y="177.0" width="162" height="77" fill="#c7eae5" stroke="#c7eae5" stroke-width="0"/>
		<rect x="9" y="152" width="162" height="102" fill="none" stroke="#35978f" stroke-width="2"/>
		<line x1="9" y1="177" x2="171" y2="177" stroke="#35978f" stroke-width="1"/>
	</g>
	<text x="60" y="169.7" fill="#000000" font-family="Verdana" font-size="12">VISITEUR</text>
	<text x="14" y="194.7" fill="#000000" font-family="Verdana" font-size="12">numéro de billet</text>
	<line x1="14" y1="197" x2="114" y2="197" stroke="#000000" stroke-width="1"/>
	<text x="14" y="211.8" fill="#000000" font-family="Verdana" font-size="12">texte de billet</text>
	<text x="14" y="228.8" fill="#000000" font-family="Verdana" font-size="12">date de début de validité</text>
	<text x="14" y="245.8" fill="#000000" font-family="Verdana" font-size="12">date de fin de validité</text>
</g>
</svg>